<svg width="200" height="200" viewBox="0 0 200 200" fill="none" xmlns="http://www.w3.org/2000/svg">
<path d="M47.811 92.3454H43.3031V80.9092L32.3207 91.1503V80.9092H30.4903V91.1503L19.5079 80.9092V92.3454H15V108.819H19.4928V119.09L30.4903 109.303V119.09H32.3207V109.303L43.3182 119.09V108.819H47.811V92.3454ZM41.4727 85.1146V92.3303H33.7275L41.4727 85.1146ZM21.3383 85.1146L29.0835 92.3303H21.3383V85.1146ZM16.8304 106.989V94.1758H29.0532L19.4928 102.965V106.989H16.8304ZM21.3232 103.766L30.4903 95.3406V106.852L21.3232 115.006V103.751V103.766ZM41.4878 115.006L32.3207 106.852V95.3406L41.4878 103.766V115.021V115.006ZM45.9806 106.989H43.3182V102.965L33.7578 94.1758H45.9806V106.989ZM98.6975 92.3998H99.9955V95.0758H98.3148C96.9972 95.0758 96.0155 95.3935 95.365 96.0274C94.7176 96.6612 94.3923 97.7019 94.3923 99.1496V107.919H91.739V92.4588H94.3923V94.9261C94.3923 95.0653 94.4619 95.1348 94.5996 95.1348C94.6782 95.1348 94.7372 95.1152 94.7766 95.0758C94.8174 95.035 94.8552 94.9563 94.8946 94.8368C95.4059 93.2122 96.675 92.3998 98.6991 92.3998H98.6975ZM116.035 95.7142C116.732 96.9531 117.082 98.4447 117.082 100.189C117.082 101.933 116.734 103.425 116.035 104.663C115.336 105.902 114.433 106.828 113.321 107.444C112.211 108.06 111.016 108.365 109.739 108.365C107.222 108.365 105.452 107.355 104.431 105.332C104.352 105.175 104.254 105.093 104.136 105.093C104.018 105.093 103.959 105.152 103.959 105.272V113.566H101.305V92.4603H103.959V95.1061C103.959 95.2256 104.018 95.2846 104.136 95.2846C104.254 95.2846 104.351 95.2059 104.431 95.0456C105.453 93.0231 107.222 92.0126 109.739 92.0126C111.016 92.0126 112.211 92.3197 113.321 92.9338C114.433 93.5495 115.336 94.4753 116.035 95.7142ZM114.428 100.189C114.428 98.3645 113.943 96.9425 112.969 95.923C111.996 94.9034 110.715 94.3921 109.12 94.3921C107.526 94.3921 106.245 94.9034 105.27 95.923C104.298 96.9441 103.941 98.366 103.941 100.189C103.941 102.012 104.298 103.435 105.27 104.455C106.243 105.476 107.527 105.986 109.12 105.986C110.713 105.986 111.996 105.474 112.969 104.455C113.943 103.435 114.428 102.012 114.428 100.189ZM72.1795 95.7384C72.8768 96.9773 73.2263 98.4689 73.2263 100.213C73.2263 101.957 72.8784 103.449 72.1795 104.688C71.4806 105.927 70.5775 106.852 69.4656 107.468C68.3553 108.084 67.1603 108.389 65.882 108.389C63.3648 108.389 61.5949 107.379 60.5739 105.356C60.4952 105.199 60.3969 105.117 60.2789 105.117C60.1609 105.117 60.1019 105.176 60.1019 105.296V113.59H57.4501V92.483H60.1034V95.1288C60.1034 95.2483 60.1624 95.3073 60.2804 95.3073C60.3984 95.3073 60.4952 95.2286 60.5754 95.0683C61.598 93.0458 63.3663 92.0353 65.8835 92.0353C67.1603 92.0353 68.3568 92.3424 69.4672 92.9565C70.5775 93.5722 71.4821 94.498 72.181 95.7369H72.1795V95.7384ZM70.573 100.212C70.573 98.3872 70.0874 96.9652 69.1132 95.9457C68.1405 94.9261 66.8577 94.4148 65.2633 94.4148C63.6689 94.4148 62.3876 94.9261 61.4134 95.9457C60.4407 96.9668 60.0837 98.3887 60.0837 100.212C60.0837 102.034 60.4407 103.458 61.4134 104.477C62.3861 105.499 63.6689 106.008 65.2633 106.008C66.8577 106.008 68.139 105.497 69.1132 104.477C70.0859 103.458 70.573 102.034 70.573 100.212ZM86.8529 103.012H89.6545C89.2808 104.459 88.5184 105.713 87.3703 106.772C86.2191 107.833 84.5732 108.362 82.4297 108.362C80.8171 108.362 79.3982 108.029 78.1684 107.365C76.94 106.701 75.9915 105.756 75.3214 104.526C74.6528 103.298 74.3185 101.85 74.3185 100.186C74.3185 98.5218 74.6437 97.0742 75.2912 95.8458C75.9401 94.6175 76.8493 93.6705 78.0186 93.0064C79.1879 92.3424 80.5585 92.0111 82.1317 92.0111C83.7049 92.0111 85.0074 92.3393 86.0996 92.9928C87.1918 93.6463 88.0056 94.5146 88.5472 95.5932C89.0872 96.6748 89.358 97.8577 89.358 99.1451V100.929H77.12C77.2168 102.475 77.7342 103.704 78.6676 104.615C79.6009 105.526 80.855 105.984 82.4282 105.984C83.7064 105.984 84.6852 105.722 85.3629 105.196C86.0406 104.67 86.5367 103.942 86.8514 103.01L86.8529 103.012ZM77.1503 98.7003H86.4112C86.4112 97.3525 86.0663 96.2966 85.378 95.5327C84.6897 94.7703 83.6081 94.3876 82.1347 94.3876C80.7581 94.3876 79.6327 94.7597 78.7583 95.5024C77.884 96.2452 77.3485 97.3117 77.1518 98.6973V98.7003H77.1503ZM119.183 107.917H121.838V86.5123H119.183V107.919V107.917ZM156.01 90.7721H159.11V87.426H156.01V90.7721ZM166.944 105.613C166.463 105.662 166.173 105.688 166.074 105.688C165.938 105.688 165.828 105.647 165.749 105.568C165.672 105.489 165.631 105.381 165.631 105.24C165.631 105.142 165.657 104.848 165.705 104.362C165.754 103.877 165.779 103.128 165.779 102.119V94.7219H169.566L168.82 92.4573H165.781V88.2943H163.128V92.4558H160.241V94.7204H163.128V102.86C163.128 104.565 163.54 105.834 164.366 106.666C165.192 107.498 166.451 107.916 168.142 107.916H170.207V105.538H169.174C168.171 105.538 167.428 105.564 166.947 105.612H166.944V105.613ZM182.475 92.4573L178.081 105.429C178.022 105.588 177.928 105.797 177.627 105.797C177.326 105.797 177.232 105.588 177.173 105.429L172.779 92.4573H170.072L175.161 107.917H176.96C177.078 107.917 177.167 107.928 177.226 107.948C177.285 107.967 177.334 108.016 177.373 108.097C177.451 108.217 177.441 108.395 177.344 108.631L176.518 110.89C176.4 111.188 176.175 111.336 175.84 111.336C175.722 111.336 175.447 111.31 175.015 111.262C174.582 111.214 174.022 111.188 173.334 111.188H171.18V113.566H174.012C175.663 113.566 176.657 113.283 177.512 112.719C178.368 112.155 179.031 111.159 179.504 109.73L185 93.0503V92.4558H182.475V92.4573ZM147.339 98.2253L143.182 92.4573H140.263V93.0503L145.246 99.7411L139.17 107.323V107.916H142.149L146.987 101.703L151.499 107.916H154.36V107.323L149.082 100.187L154.803 93.0821V92.4588H151.824L147.342 98.2269H147.339V98.2253ZM156.293 107.917H158.946V92.4603H156.293V107.92V107.917ZM139.29 103.012C138.916 104.459 138.155 105.713 137.006 106.772C135.855 107.833 134.209 108.362 132.065 108.362C130.453 108.362 129.034 108.029 127.804 107.365C126.576 106.701 125.627 105.756 124.958 104.526C124.288 103.298 123.956 101.85 123.956 100.186C123.956 98.5218 124.281 97.0742 124.928 95.8458C125.577 94.6175 126.486 93.6705 127.657 93.0064C128.826 92.3424 130.197 92.0111 131.77 92.0111C133.343 92.0111 134.646 92.3393 135.737 92.9928C136.829 93.6463 137.644 94.5146 138.184 95.5932C138.724 96.6748 138.995 97.8577 138.995 99.1451V100.929H126.757C126.854 102.475 127.371 103.704 128.305 104.615C129.238 105.526 130.492 105.984 132.065 105.984C133.342 105.984 134.322 105.722 135 105.196C135.678 104.67 136.174 103.942 136.488 103.01H139.29V103.012ZM126.786 98.7003H136.047C136.047 97.3525 135.703 96.2966 135.015 95.5327C134.327 94.7703 133.245 94.3876 131.772 94.3876C130.395 94.3876 129.27 94.7597 128.395 95.5024C127.521 96.2452 126.985 97.3117 126.789 98.6973L126.786 98.7003Z" fill="#FCFCF9"/>
</svg>
